<svg width="29" height="16" viewBox="0 0 29 16" fill="none" xmlns="http://www.w3.org/2000/svg">
<path d="M27.1133 7C27.6656 7 28.1133 7.44772 28.1133 8C28.1133 8.55228 27.6656 9 27.1133 9V7ZM0.293295 8.70711C-0.097229 8.31658 -0.097229 7.68342 0.293295 7.29289L6.65726 0.928932C7.04778 0.538408 7.68095 0.538408 8.07147 0.928932C8.46199 1.31946 8.46199 1.95262 8.07147 2.34315L2.41462 8L8.07147 13.6569C8.46199 14.0474 8.46199 14.6805 8.07147 15.0711C7.68095 15.4616 7.04778 15.4616 6.65726 15.0711L0.293295 8.70711ZM27.1133 9H1.0004V7H27.1133V9Z" fill="#FF6B09"/>
</svg>
