<svg width="29" height="16" viewBox="0 0 29 16" fill="none" xmlns="http://www.w3.org/2000/svg">
<path d="M1.88672 7C1.33443 7 0.886719 7.44772 0.886719 8C0.886719 8.55228 1.33443 9 1.88672 9V7ZM28.7067 8.70711C29.0972 8.31658 29.0972 7.68342 28.7067 7.29289L22.3427 0.928932C21.9522 0.538408 21.3191 0.538408 20.9285 0.928932C20.538 1.31946 20.538 1.95262 20.9285 2.34315L26.5854 8L20.9285 13.6569C20.538 14.0474 20.538 14.6805 20.9285 15.0711C21.3191 15.4616 21.9522 15.4616 22.3427 15.0711L28.7067 8.70711ZM1.88672 9H27.9996V7H1.88672V9Z" fill="#FF6B09"/>
</svg>
