<svg aria-hidden="true" style="position: absolute; width: 0; height: 0" xmlns="http://www.w3.org/2000/svg"
  overflow="hidden">
  <defs>
    <symbol id="arrow-left" viewBox="0 0 54 32">
      <path fill="currentColor"
        d="M52 14a2 2 0 110 4v-4zM.586 17.414a2 2 0 010-2.828L13.314 1.858a2 2 0 112.828 2.828L4.828 16l11.314 11.314a2 2 0 11-2.828 2.828L.586 17.414zM52 18H2v-4h50v4z" />
    </symbol>
    <symbol id="arrow-right" viewBox="0 0 54 32">
      <path fill="currentColor"
        d="M2 14a2 2 0 100 4v-4zm51.414 3.414a2 2 0 000-2.828L40.686 1.858a2 2 0 10-2.828 2.828L49.172 16 37.858 27.314a2 2 0 102.828 2.828l12.728-12.728zM2 18h50v-4H2v4z" />
    </symbol>
    <symbol id="audio-book" viewBox="0 0 39 32">
      <path fill="currentColor"
        d="M3.048 29.453h12.23a3.738 3.738 0 003.38 2.116h.772c1.465 0 2.761-.83 3.381-2.116h12.237a2.289 2.289 0 002.286-2.286V5.262a2.289 2.289 0 00-2.286-2.286h-1.234V1.955c0-.84-.684-1.524-1.524-1.524H5.799c-.84 0-1.524.683-1.524 1.524v1.021H3.048A2.289 2.289 0 00.762 5.262v21.905a2.289 2.289 0 002.286 2.286zm29.24-4.701H19.81V7.047c2.884.377 5.121 2.845 5.121 5.831v.687l-.181-.04a.759.759 0 00-.908.58l-1.213 5.519c-.09.41.17.816.58.907l2.621.578a1.946 1.946 0 002.319-1.492l.702-3.192a1.954 1.954 0 00-1.484-2.324l-.912-.201v-1.023c0-3.827-2.917-6.986-6.644-7.37V1.956h12.48l-.001 22.796zm-7.122-9.575l1.871.412a.422.422 0 01.325.508l-.702 3.191a.45.45 0 01-.507.331l-1.874-.413.886-4.03zM5.798 1.956h12.487v3.55c-3.731.381-6.652 3.541-6.652 7.371v1.022l-.914.202a1.935 1.935 0 00-1.222.854c-.28.439-.373.961-.26 1.468l.7 3.188a1.96 1.96 0 002.325 1.495l2.61-.577a.762.762 0 00.58-.907l-1.213-5.519c-.043-.198-.164-.37-.334-.478s-.378-.144-.574-.102l-.174.038v-.686c0-2.988 2.24-5.458 5.128-5.832v17.706H5.798V1.953zm7.118 13.221l.887 4.029-1.863.411a.433.433 0 01-.512-.328l-.702-3.196a.42.42 0 01.323-.506l1.867-.412zM2.286 5.262c0-.42.341-.762.762-.762h1.227v20.252c0 .84.684 1.524 1.524 1.524H32.29c.84 0 1.524-.683 1.524-1.524V4.5h1.234c.42 0 .762.342.762.762v21.905c0 .42-.342.762-.762.762H22.294a.76.76 0 00-.728.538 2.22 2.22 0 01-2.135 1.577h-.772a2.229 2.229 0 01-2.138-1.586.762.762 0 00-.725-.529H3.049a.763.763 0 01-.762-.762V5.262z" />
    </symbol>
    <symbol id="campfire" viewBox="0 0 23 32">
      <path fill="currentColor"
        d="M21.908 16.593c-.284-.635-.675-1.261-1.247-1.983-1.442-1.813-1.882-5.857-1.887-5.896a.488.488 0 00-.337-.412.495.495 0 00-.518.141c-1.721 1.925-.997 4.897-.606 6.085.108.325.225.708.308 1.096.636 3.137-.592 4.558-.88 4.844-.279.078-.469.039-.645-.15-.606-.664-.807-2.841-.523-5.678a5.797 5.797 0 00-.039-1.581c-.598-3.486-2.791-5.722-3.349-6.507C10.65 4.283 10.494.506 10.489.472a.487.487 0 00-.763-.383C7.164 1.83 7.384 6.024 7.741 8.365c.083.543.244 1.096.523 1.794.992 2.497-.196 5.721-.205 5.75s-.02.053-.024.082c-.152.795-.406 1.27-.689 1.27a.327.327 0 01-.093-.015c-.347-.073-.528-.441-.533-.761-.02-4.136-4.17-5.527-4.214-5.542a.487.487 0 00-.586.678c.049.102.205.548.098 2.124a18.09 18.09 0 01-.768 4.16C.262 21.124.419 24.174.429 24.32c.759 8.257 12.635 9.704 19.683 5.052.772-.509 1.403-1.091 1.868-1.731 2.601-3.588 1.071-8.461-.068-11.05zM3.844 24.481a.484.484 0 01-.46.509h-.029a.487.487 0 01-.489-.456c-.044-.708-.034-1.45.02-2.255a.49.49 0 01.978.068 15.622 15.622 0 00-.02 2.133zm.24-4.295a.485.485 0 01-.484.427c-.02 0-.039 0-.064-.005a.489.489 0 01-.425-.538l.235-1.871a.494.494 0 01.548-.422c.269.034.46.276.425.543l-.235 1.867zM18.601 6.633a.484.484 0 01-.408-.553c.03-.197.207-1.205.686-1.713.185-.196.493-.206.691-.022s.207.49.022.685c-.203.215-.376.829-.433 1.197a.489.489 0 01-.558.405zM.778 9.048C.684 8.687.452 8.093.229 7.899c-.203-.177-.223-.483-.045-.684s.486-.222.69-.045c.527.458.802 1.445.852 1.638a.49.49 0 01-.947.241z" />
    </symbol>
    <symbol id="check" viewBox="0 0 45 32">
      <path fill="currentColor"
        d="M38.334 1.514a33.065 33.065 0 00-4.661 2.379c-2.985 1.797-5.714 3.936-8.273 6.218-2.558 2.287-4.94 4.735-7.192 7.28-.563.636-3.085 3.47-3.085 3.47L4.635 6.481.676 16.523 14.859 32c1.377-2.551 2.703-5.07 4.003-7.258.323-.556.661-1.08.985-1.612 0 0 1.664-2.677 2.102-3.352 1.75-2.697 3.642-5.325 5.726-7.821 2.086-2.491 4.353-4.87 6.924-6.961a30.842 30.842 0 014.099-2.872c1.456-.848 3.003-1.591 4.657-2.125-1.721.31-3.4.848-5.019 1.514z" />
    </symbol>
    <symbol id="close" viewBox="0 0 32 32">
      <path fill="none" stroke="currentColor" stroke-width="3.765"
        d="M1.882 29.168L29.168 1.882M29.168 29.168L1.882 1.882" />
    </symbol>
    <symbol id="ellipse" viewBox="0 0 36 32">
      <path fill="currentColor"
        d="M34.286 16c0 8.837-7.675 16-17.143 16S0 24.837 0 16 7.675 0 17.143 0s17.143 7.163 17.143 16z" />
    </symbol>
    <symbol id="facebook" viewBox="0 0 32 32">
      <path fill="currentColor"
        d="M21.329 5.313h2.921V.225C23.746.156 22.013 0 19.994 0c-4.212 0-7.097 2.649-7.097 7.519V12H8.249v5.688h4.648V32h5.699V17.689h4.46l.708-5.688h-5.169V8.082c.001-1.644.444-2.769 2.735-2.769z" />
    </symbol>
    <symbol id="female-student-border" viewBox="0 0 31 32">
      <path fill="currentColor"
        d="M7.953 23.273c1.588 0 10.776 0 12.362 0 0.061-1.41-0.040-3.749-0.907-4.862l-0.031-0.040-1.894-0.951c0.041-0.139 0.061-0.266 0.069-0.359 0.009-0.112-0.006-0.217-0.046-0.313-0.312-0.748-0.974-1.141-1.337-1.309 0.111-0.223 0.182-0.463 0.217-0.708 0.206-0.058 0.372-0.221 0.426-0.439l0.221-0.898c0.039-0.158 0.015-0.323-0.070-0.463-0.036-0.060-0.083-0.111-0.136-0.154 0.623-1.416-0.421-2.751-0.478-2.821-1.131-1.222-2.559-0.994-2.634-0.98-2.061 0.432-2.857 2.011-2.408 3.864-0.133 0.147-0.189 0.353-0.14 0.554l0.222 0.899c0.054 0.216 0.218 0.379 0.423 0.437 0.063 0.449 0.253 0.854 0.532 1.181v0.712c-2.958 1.515-1.084 0.548-3.454 1.748-0.005 0.022-1.112 1.2-0.948 4.689l0.010 0.213zM19.885 22.826h-2.035v-0.855l1.346-3.081c0.674 1.119 0.699 3.255 0.689 3.935zM17.108 17.023c-0.079 0.902-0.573 0.629-0.878 1.324-0.24-0.264-0.312-0.581-0.248-0.92 0.117-0.622-0.263-0.807-0.169-1.461l0.014-0.015v-0.002c0.008-0.009 0.083-0.098 0.105-0.126 0.805 0.351 1.193 1.003 1.177 1.2zM12.79 16.314c0.374 0.259 0.825 0.412 1.31 0.412 0.457 0 0.891-0.133 1.263-0.378 0.052 0.514 0.253 0.617 0.181 0.995-0.013 0.070-0.021 0.139-0.025 0.207l-1.386 1.562-1.771-1.997 0.428-0.223v-0.579zM12.233 14.403v-0.866c0-0.319 0-1.584 0-1.521 0.216-0.399 0.51-0.688 0.875-0.861 0.979 0.554 2.105 1.38 2.86 2.211-0.001 1.059 0.003 1.062-0.004 1.149l-0 0.006c-0.059 0.962-0.85 1.759-1.864 1.759-0.986 0-1.804-0.774-1.863-1.768-0.003-0.036-0.004-0.071-0.004-0.108zM11.957 17.332l2.177 2.454 1.461-1.647c0.033 0.096 0.080 0.187 0.134 0.275l-1.595 1.995-2.379-2.975 0.202-0.101zM16.414 14.043v-0.691c0.020-0.022 0.186-0.213 0.166-0.191 0.009 0.35 0.047-0.063-0.166 0.882zM13.798 9.416c0.088 0.005 1.276-0.181 2.215 0.833 0.037 0.046 0.801 1.031 0.494 2.108-0.105-0.479-0.288-1.093-0.578-1.387l-0.316 0.315c0.286 0.289 0.474 1.171 0.545 1.628-1.311-1.372-3.002-2.24-3.025-2.255-0.085 0.053-0.8 0.189-1.32 1.199l-0.025 0.048v0.742c-0.022 0-0.088 0.001-0.066 0.001-0.33-1.594 0.302-2.861 2.076-3.233zM11.675 13.109l0.113 0.456v0.479l-0.187-0.757c-0.027-0.113 0.056-0.156 0.074-0.178zM11.347 17.638l2.787 3.485 1.885-2.358c0.205 0.184 0.304 0.21 0.739 0.433l-0.147-0.497c-0.037-0.126 0.11-0.329 0.199-0.422 0.199-0.108 0.364-0.261 0.488-0.451l1.538 0.772-1.431 3.277v0.948h-6.543v-0.949l-1.432-3.277 1.917-0.962zM9.071 18.891l1.346 3.080v0.855h-2.035c-0.010-0.68 0.015-2.815 0.689-3.934z">
      </path>
      <path fill="none" stroke="currentColor" stroke-linejoin="miter" stroke-linecap="butt" stroke-miterlimit="4"
        stroke-width="0.6154" d="M31.077 4.615v-4.308h-30.769v31.385h30.769v-4.308"></path>
    </symbol>
    <symbol id="female-student" viewBox="0 0 27 32">
      <path fill="currentColor"
        d="M-.1 31.374h26.131c.129-2.98-.084-7.924-1.916-10.278l-.066-.085-4.004-2.01c.087-.293.13-.562.147-.759.02-.237-.013-.46-.097-.661-.661-1.581-2.058-2.412-2.827-2.767.234-.472.385-.979.458-1.497.435-.123.785-.467.9-.928l.467-1.899a1.285 1.285 0 00-.147-.978 1.284 1.284 0 00-.287-.326c1.318-2.993-.889-5.815-1.009-5.963-2.39-2.584-5.409-2.101-5.569-2.072-4.357.912-6.039 4.252-5.089 8.168a1.287 1.287 0 00-.295 1.171l.47 1.901c.114.457.461.8.893.925a4.892 4.892 0 001.124 2.497v1.505c-6.253 3.202-2.291 1.159-7.302 3.694-.01.047-2.351 2.536-2.003 9.911l.021.451zm25.223-.946h-4.301v-1.807l2.845-6.512c1.425 2.365 1.478 6.881 1.456 8.318zm-5.869-12.266c-.166 1.907-1.211 1.33-1.857 2.799-.508-.558-.66-1.228-.524-1.944.246-1.316-.556-1.706-.358-3.089l.03-.032v-.004c.017-.019.175-.208.221-.267 1.702.742 2.521 2.121 2.488 2.537zm-9.129-1.498a4.843 4.843 0 005.439.073c.109 1.087.534 1.304.383 2.104a3.548 3.548 0 00-.053.439l-2.929 3.301-3.744-4.221.904-.472v-1.224zm-1.177-4.04v-1.83-3.216c.456-.843 1.077-1.454 1.85-1.821 2.068 1.17 4.449 2.917 6.046 4.675-.002 2.239.006 2.245-.009 2.428l-.001.012c-.125 2.033-1.796 3.718-3.939 3.718-2.084 0-3.814-1.636-3.939-3.738a2.86 2.86 0 01-.008-.228zm-.583 6.192l4.601 5.187 3.089-3.481c.071.203.17.395.283.581l-3.372 4.217-5.028-6.289.427-.214zm9.42-6.953v-1.461l.351-.403c.019.74.099-.133-.351 1.864zm-5.53-9.781c.187.012 2.698-.382 4.682 1.76.078.098 1.693 2.179 1.045 4.456-.222-1.013-.609-2.311-1.221-2.931l-.669.666c.604.612 1.001 2.475 1.152 3.441-2.771-2.9-6.346-4.735-6.395-4.766-.179.112-1.692.399-2.791 2.534l-.052.102v1.568a3.55 3.55 0 01-.138.001c-.698-3.37.639-6.047 4.388-6.833zM7.768 9.888l.238.963v1.012l-.395-1.599c-.058-.238.119-.329.157-.376zm-.693 9.575l5.89 7.367 3.985-4.984c.434.388.642.443 1.561.916l-.31-1.052c-.079-.267.233-.695.421-.892.42-.228.77-.553 1.032-.954l3.252 1.633-3.026 6.927v2.005H6.05v-2.005l-3.027-6.926 4.052-2.034zm-4.811 2.649l2.845 6.51v1.806H.808c-.022-1.437.032-5.95 1.456-8.316z" />
    </symbol>
    <symbol id="insurance-border" viewBox="0 0 31 32">
      <path fill="currentColor"
        d="M7.942 14.958c0 0.165-0.25 0.165-0.25 0 0-3.502 2.84-6.342 6.343-6.342 3.504 0 6.343 2.84 6.343 6.343 0 0.165-0.249 0.165-0.249 0 0-2.367-3.89-2.369-3.89 0 0 0.165-0.256 0.165-0.256 0 0-2.361-3.896-2.361-3.896 0 0 0.165-0.256 0.165-0.256 0 0-2.357-3.888-2.373-3.888 0zM11.853 14.039c0.067-1.363 0.281-2.584 0.593-3.517 0.249-0.741 0.563-1.304 0.919-1.62-2.674 0.292-4.839 2.319-5.323 4.949 0.921-1.328 3.047-1.222 3.811 0.189zM15.963 13.977c-0.069-1.31-0.277-2.482-0.576-3.376-0.773-2.313-1.931-2.313-2.704 0-0.299 0.894-0.506 2.066-0.576 3.376 0.831-1.412 3.026-1.412 3.857 0zM20.027 13.85c-0.482-2.629-2.647-4.657-5.323-4.949 0.358 0.316 0.671 0.879 0.919 1.62 0.311 0.933 0.526 2.155 0.593 3.517 0.768-1.418 2.9-1.502 3.811-0.189z">
      </path>
      <path fill="currentColor"
        d="M13.202 17.86v-1.288c-0.232 0.154-0.415 0.392-0.415 0.683 0 0.283 0.186 0.47 0.415 0.605zM13.452 18.26c-0.445-0.204-0.913-0.442-0.913-1.005 0-0.581 0.442-0.872 0.913-1.089v2.094z">
      </path>
      <path fill="currentColor"
        d="M14.867 19.803v1.303c0.235-0.156 0.419-0.395 0.419-0.686 0-0.286-0.189-0.479-0.419-0.617zM14.619 19.402c0.446 0.207 0.918 0.452 0.918 1.018 0 0.582-0.445 0.873-0.918 1.089v-2.107z">
      </path>
      <path fill="currentColor"
        d="M14.867 15.106c1.024 0.237 2.077 1.003 2.077 2.149 0 0.981-1.658 0.945-1.658 0 0-0.292-0.184-0.532-0.419-0.686v1.833c0.948 0.31 2.080 0.865 2.080 2.018 0 1.147-1.053 1.912-2.080 2.147-0.005 1.092-1.662 1.090-1.665-0.001-0.584-0.135-1.092-0.407-1.458-0.768-0.385-0.38-0.612-0.858-0.612-1.378 0-0.966 1.656-0.966 1.656 0 0 0.289 0.183 0.527 0.415 0.681v-1.831c-0.94-0.304-2.078-0.876-2.078-2.018 0-1.147 1.053-1.912 2.078-2.147 0.005-1.092 1.662-1.090 1.665 0.001zM13.452 15.109v0.199c-0.975 0.193-2.080 0.818-2.080 1.944 0 1.083 1.213 1.568 2.080 1.836v2.42c-0.469-0.214-0.913-0.503-0.913-1.087 0-0.638-1.159-0.638-1.159 0 0 0.451 0.201 0.867 0.539 1.199 0.43 0.425 0.951 0.627 1.533 0.743v0.201c0 0.768 1.166 0.768 1.166 0v-0.199c0.978-0.195 2.078-0.819 2.078-1.944 0-1.093-1.21-1.563-2.078-1.837v-2.418c0.47 0.214 0.918 0.503 0.918 1.090 0 0.621 1.157 0.647 1.157 0 0-1.125-1.099-1.75-2.075-1.945v-0.201c0-0.768-1.166-0.768-1.166 0z">
      </path>
      <path fill="none" stroke="currentColor" stroke-linejoin="miter" stroke-linecap="butt" stroke-miterlimit="4"
        stroke-width="0.6154" d="M31.077 4.615v-4.308h-30.769v31.385h30.769v-4.308"></path>
    </symbol>
    <symbol id="insurance" viewBox="0 0 27 32">
      <path fill="currentColor"
        d="M.529 13.797c0 .348-.529.348-.529 0C0 6.394 6.004.39 13.407.39c7.406 0 13.407 6.004 13.407 13.407 0 .348-.525.348-.525 0 0-5.004-8.223-5.007-8.223 0 0 .348-.541.348-.541 0 0-4.991-8.235-4.991-8.235 0 0 .348-.541.348-.541 0 0-4.982-8.219-5.017-8.219 0zm8.267-1.943c.142-2.88.595-5.463 1.253-7.435.525-1.567 1.19-2.757 1.943-3.425C6.339 1.611 1.763 5.897.74 11.454c1.946-2.807 6.441-2.583 8.055.399zm8.687-.13c-.146-2.769-.586-5.248-1.218-7.137-1.633-4.89-4.083-4.89-5.716 0-.633 1.889-1.07 4.368-1.219 7.137 1.757-2.985 6.396-2.985 8.153 0zm8.59-.269A12.881 12.881 0 0014.821.995c.756.668 1.418 1.858 1.943 3.425.658 1.972 1.111 4.554 1.253 7.435 1.624-2.997 6.131-3.175 8.055-.399zM11.647 19.932V17.21c-.491.326-.877.829-.877 1.444 0 .598.393.994.877 1.279zm.529.845c-.94-.431-1.931-.934-1.931-2.124 0-1.228.934-1.842 1.931-2.301v4.426zM15.167 24.039v2.754c.497-.329.886-.835.886-1.45 0-.605-.399-1.013-.886-1.304zm-.526-.848c.943.437 1.94.956 1.94 2.152 0 1.231-.94 1.845-1.94 2.301v-4.453z" />
      <path fill="currentColor"
        d="M15.167 14.111c2.165.5 4.39 2.121 4.39 4.542 0 2.073-3.504 1.997-3.504 0 0-.617-.389-1.124-.886-1.45v3.874c2.003.655 4.396 1.829 4.396 4.267 0 2.424-2.225 4.042-4.396 4.539-.01 2.307-3.513 2.304-3.519-.003-1.234-.285-2.307-.861-3.083-1.624-.813-.804-1.295-1.814-1.295-2.912 0-2.042 3.5-2.042 3.5 0 0 .611.386 1.114.877 1.44v-3.871c-1.988-.643-4.393-1.852-4.393-4.267 0-2.424 2.225-4.042 4.393-4.539.009-2.307 3.513-2.304 3.519.003zm-2.991.006v.421c-2.06.408-4.396 1.728-4.396 4.108 0 2.288 2.564 3.314 4.396 3.88v5.115c-.991-.453-1.931-1.064-1.931-2.298 0-1.348-2.45-1.348-2.45 0 0 .953.424 1.833 1.139 2.535.908.899 2.01 1.326 3.241 1.57v.424c0 1.624 2.466 1.624 2.466 0v-.421c2.067-.411 4.393-1.731 4.393-4.108 0-2.31-2.557-3.304-4.393-3.884v-5.112c.994.453 1.94 1.063 1.94 2.304 0 1.313 2.447 1.367 2.447 0 0-2.377-2.323-3.7-4.387-4.111v-.424c0-1.624-2.466-1.624-2.466 0z" />
    </symbol>
    <symbol id="menu" viewBox="0 0 48 32">
      <path stroke="currentColor" stroke-width="4.571" d="M0 2.286h46.857M0 16h46.857M0 29.714h46.857" />
    </symbol>
    <symbol id="mobile-learning-border" viewBox="0 0 31 32">
      <path fill="currentColor"
        d="M20.406 8.558h-7.116c-0.463 0-0.84 0.377-0.84 0.84v2.946l-5.287 2.219c-0.060 0.025-0.101 0.082-0.105 0.146s0.027 0.127 0.083 0.16l0.674 0.403v4.3c-0.345 0.079-0.603 0.387-0.603 0.756v0.414c0 0.095 0.077 0.172 0.172 0.172h1.207c0.095 0 0.172-0.077 0.172-0.172v-0.414c0-0.369-0.259-0.677-0.604-0.756v-4.094l0.533 0.319c-0.016 0.123-0.002-0.214-0.008 2.002 0 0.729 1.866 1.119 3.765 1.141v3.356c0 0.173 0.053 0.335 0.144 0.468 0.151 0.223 0.407 0.37 0.696 0.37h7.116c0.463 0 0.839-0.377 0.839-0.839 0 0.023-0.001-0.711 0-12.898 0-0.457-0.378-0.84-0.839-0.84zM8.419 20.328v0.242h-0.863v-0.242c0-0.239 0.193-0.433 0.43-0.433 0.239 0 0.433 0.194 0.433 0.433zM20.406 22.79h-7.116c-0.171 0-0.322-0.086-0.411-0.218-0.053-0.079-0.085-0.174-0.085-0.276v-1.163h8.105v1.164c0 0.27-0.225 0.494-0.494 0.494zM20.9 20.788h-8.105v-1.847c0.927-0.011 3.767-0.215 3.767-1.142-0.001-1.392 0.002-1.957-0.004-2.005l1.546-0.926c0.056-0.033 0.088-0.095 0.083-0.16s-0.045-0.121-0.105-0.146l-5.286-2.219v-1.438h8.105v9.883zM12.622 16.656c-0.955 0-2.794 0.123-3.592 0.645 0.005-1.595-0.055-1.491 0.141-1.627 0.496-0.365 1.915-0.62 3.451-0.62 0.67 0 3.595 0.184 3.595 0.803v1.444c-0.806-0.526-2.636-0.645-3.595-0.645zM12.795 9.398c0-0.273 0.222-0.495 0.495-0.495h7.116c0.273 0 0.494 0.225 0.494 0.495v1.163h-8.105v-1.163zM12.622 12.644l5.012 2.104-1.242 0.743c-0.66-0.655-2.844-0.782-3.77-0.782-0.927 0-3.111 0.127-3.77 0.782l-1.242-0.743 5.012-2.104zM9.030 17.799c0-0.279 1.234-0.799 3.592-0.799 2.36 0 3.595 0.52 3.595 0.799s-1.235 0.799-3.595 0.799c-2.359 0-3.592-0.52-3.592-0.799z">
      </path>
      <path fill="currentColor"
        d="M16.848 21.392c-0.314 0-0.569 0.255-0.569 0.569s0.255 0.57 0.569 0.57c0.314 0 0.569-0.256 0.569-0.57s-0.255-0.569-0.569-0.569zM16.848 22.186c-0.124 0-0.225-0.101-0.225-0.225s0.101-0.225 0.225-0.225c0.124 0 0.225 0.101 0.225 0.225s-0.101 0.225-0.225 0.225z">
      </path>
      <path fill="currentColor" d="M17.504 9.56h-1.313v0.344h1.313v-0.344z"></path>
      <path fill="none" stroke="currentColor" stroke-linejoin="miter" stroke-linecap="butt" stroke-miterlimit="4"
        stroke-width="0.6154" d="M31.077 4.615v-4.308h-30.769v31.385h30.769v-4.308"></path>
    </symbol>
    <symbol id="mobile-learning" viewBox="0 0 32 32">
      <path fill="currentColor"
        d="M29.457.256H14.086a1.817 1.817 0 00-1.815 1.815v6.363L.852 13.227a.371.371 0 00-.047.662l1.456.872v9.288a1.678 1.678 0 00-1.304 1.634v.895c0 .205.167.372.372.372h2.608a.373.373 0 00.372-.372v-.895a1.68 1.68 0 00-1.304-1.633v-8.844l1.151.689c-.035.266-.004-.463-.016 4.324 0 1.574 4.031 2.417 8.132 2.465v7.249a1.813 1.813 0 001.814 1.812h15.371c1 0 1.813-.814 1.813-1.813 0 .05-.002-1.535 0-27.86 0-.987-.816-1.815-1.812-1.815zM3.565 25.682v.523H1.701v-.523c0-.515.417-.935.93-.935.515 0 .934.419.934.935zm25.892 5.316H14.086a1.071 1.071 0 01-1.07-1.067v-2.513h17.508v2.514c0 .582-.485 1.066-1.066 1.066zm1.066-4.323H13.015v-3.989c2.002-.023 8.137-.464 8.137-2.467-.002-3.007.005-4.227-.009-4.33l3.339-2a.373.373 0 00-.047-.662L13.016 8.434V5.328h17.508v21.347zm-17.88-8.925c-2.063 0-6.034.266-7.76 1.393.011-3.446-.12-3.222.305-3.514 1.072-.789 4.137-1.34 7.455-1.34 1.447 0 7.765.398 7.765 1.735v3.119c-1.742-1.137-5.693-1.394-7.765-1.394zm.372-15.679c0-.59.48-1.069 1.069-1.069h15.371c.59 0 1.067.486 1.067 1.069v2.513H13.014V2.071zm-.372 7.013l10.826 4.544-2.683 1.605c-1.426-1.414-6.144-1.689-8.143-1.689-2.002 0-6.72.275-8.143 1.689l-2.683-1.606 10.827-4.544zm-7.76 11.135c0-.602 2.665-1.725 7.76-1.725 5.098 0 7.765 1.123 7.765 1.725s-2.667 1.726-7.765 1.726c-5.095 0-7.76-1.123-7.76-1.726z" />
      <path fill="currentColor"
        d="M21.77 27.979a1.231 1.231 0 000 2.46c.678 0 1.23-.552 1.23-1.23s-.552-1.23-1.23-1.23zm0 1.717a.487.487 0 11.001-.973.487.487 0 01-.001.973zM23.189 2.421h-2.837v.744h2.837v-.744z" />
    </symbol>
    <symbol id="open-book" viewBox="0 0 46 32">
      <path fill="currentColor"
        d="M20.267 4.608H6.627v1.021h13.64V4.608zM20.267 8.416H8.67v1.021h11.597V8.416zM20.267 12.224H6.627v1.021h13.64v-1.021zM20.267 16.032H8.67v1.021h11.597v-1.021zM20.267 19.84H6.627v1.021h13.64V19.84zM20.267 23.648H8.67v1.021h11.597v-1.021zM38.99 4.608H25.35v1.021h13.64V4.608zM36.947 8.416H25.35v1.021h11.597V8.416zM38.99 12.224H25.35v1.021h13.64v-1.021zM36.947 16.032H25.35v1.021h11.597v-1.021zM38.99 19.84H25.35v1.021h13.64V19.84zM36.947 23.648H25.35v1.021h11.597v-1.021z" />
      <path fill="currentColor"
        d="M43.915 3.445h-1.872V.633a.511.511 0 00-.511-.511H26.267c-1.49 0-2.781.805-3.458 2.011A3.95 3.95 0 0019.35.122H4.085a.511.511 0 00-.511.511v2.812H1.702a.511.511 0 00-.511.511v27.411c0 .282.229.511.511.511h42.213a.511.511 0 00.511-.511V3.956a.511.511 0 00-.511-.511zM26.267 1.144h14.754v27.35H25.178a3.01 3.01 0 00-1.859.68V4.085a2.932 2.932 0 012.948-2.942zm-21.671 0H19.35a2.924 2.924 0 012.942 2.829c.001.022.003.091.006.112v25.087a2.987 2.987 0 00-1.852-.678H4.596V1.144zM2.213 4.467h1.362v24.538c0 .282.229.511.511.511h16.361c.778 0 1.531.511 1.771 1.341H2.213V4.467zm41.191 26.389H23.4a1.845 1.845 0 011.778-1.341h16.354a.511.511 0 00.511-.511V4.466h1.362v26.39z" />
    </symbol>
    <symbol id="phone" viewBox="0 0 33 32">
      <path fill="currentColor"
        d="M4.817.003a2.072 2.072 0 00-1.44.674L.693 3.627c.004-.009-.01-.007-.087.1a.627.627 0 00-.093.182c-1.092 3.48-.36 7.308 1.424 10.949s4.63 7.125 7.897 9.984c3.267 2.859 6.953 5.096 10.468 6.205s6.922 1.095 9.448-.737a.697.697 0 00.077-.067c.066-.066.068-.075.058-.065l.01-.013 2.671-2.938a2.09 2.09 0 00-.138-2.938l-6.337-5.763a2.09 2.09 0 00-2.938.137l-2.867 3.153c-2.327-.674-4.317-1.816-6.231-3.557s-3.24-3.615-4.131-5.869l2.866-3.153a2.09 2.09 0 00-.137-2.938L6.316.536A2.07 2.07 0 004.818.001h-.001zm.061 1.293a.772.772 0 01.559.208l6.337 5.763a.762.762 0 01.052 1.097l-3.169 3.482a.664.664 0 00-.129.661c.962 2.624 2.513 4.777 4.648 6.719s4.423 3.283 7.126 3.992a.65.65 0 00.647-.192l3.169-3.483a.76.76 0 011.096-.051l6.338 5.763a.76.76 0 01.051 1.096l-2.649 2.912c-2.072 1.488-4.992 1.571-8.262.539-3.282-1.036-6.846-3.182-9.999-5.942s-5.898-6.131-7.585-9.573C1.438 10.88.833 7.435 1.751 4.399l2.588-2.844a.775.775 0 01.538-.26z" />
    </symbol>
    <symbol id="rectangle" viewBox="0 0 31 32">
      <path fill="none" stroke="currentColor" stroke-width="1.016" d="M30.387 4.945V.762H.508v30.476h29.879v-4.183" />
    </symbol>
    <symbol id="study-program" viewBox="0 0 31 32">
      <path fill="currentColor"
        d="M30.151 4.961l-.001-.002a.32.32 0 00-.06-.09L25.284.063a.258.258 0 00-.041-.033l-.009-.006c-.012-.007-.024-.014-.036-.019L25.187 0a.277.277 0 00-.099-.02H3.912a.284.284 0 00-.284.284v29.311c0 .019.002.037.006.056l.007.023.009.03.014.026.013.023c.01.014.021.028.033.04l.003.003 2.165 2.164c.111.111.29.111.402 0l1.964-1.963 1.964 1.963c.055.056.128.083.201.083s.145-.027.201-.083l1.963-1.963 1.965 1.963a.284.284 0 00.402 0l1.963-1.963 1.963 1.963a.283.283 0 00.401 0l1.965-1.963 1.964 1.963c.055.056.128.083.201.083s.145-.027.201-.083l1.963-1.963 1.965 1.963a.283.283 0 00.401 0l2.165-2.164.011-.014.024-.029c.007-.009.011-.02.016-.03.003-.007.007-.012.009-.019.006-.013.009-.026.012-.039l.005-.013a.286.286 0 00.006-.058V5.071a.296.296 0 00-.023-.109zM25.367.949l3.836 3.835h-3.836V.949zm4.237 28.507l-1.88 1.88-1.965-1.963a.283.283 0 00-.401 0l-1.963 1.963-1.964-1.963a.284.284 0 00-.402 0l-1.965 1.963-1.963-1.962v-.001a.284.284 0 00-.402 0l-1.963 1.963-1.965-1.963a.284.284 0 00-.402 0l-1.963 1.963-1.964-1.963a.284.284 0 00-.402 0l-1.965 1.963-1.88-1.88V.547h20.603v4.522c0 .157.127.284.284.284h4.521v24.103z" />
      <path fill="currentColor"
        d="M6.314 3.234h9.303a.284.284 0 100-.568H6.314a.284.284 0 100 .568zM6.314 4.991h14.919a.284.284 0 100-.568H6.314a.284.284 0 100 .568zM6.03 6.568v9.199c0 .157.127.284.284.284h21.172a.284.284 0 00.284-.284V6.568a.284.284 0 00-.284-.284H6.314a.284.284 0 00-.284.284zm6.278.284h14.893v2.445H12.308V6.852zm0 3.013h14.893v2.444H12.308V9.865zm0 3.012h14.893v2.605H12.308v-2.605zm-5.71-6.025h5.142v2.445H6.598V6.852zm0 3.013h5.142v2.444H6.598V9.865zm0 3.012h5.142v2.605H6.598v-2.605zM27.486 17.329H6.314a.284.284 0 00-.284.284v9.198a.284.284 0 10.568 0v-2.889h5.142v2.889a.284.284 0 10.568 0v-2.889h14.893v2.889a.284.284 0 10.568 0v-9.198a.282.282 0 00-.283-.284zM11.74 23.354H6.598v-2.443h5.142v2.443zm0-3.012H6.598v-2.444h5.142v2.444zm15.461 3.012H12.308v-2.443h14.893v2.443zm0-3.012H12.308v-2.444h14.893v2.444zM2.281-.021a.284.284 0 00-.284.284v29.311a.284.284 0 10.568 0V.263a.284.284 0 00-.284-.284zM.718-.021a.284.284 0 00-.284.284v29.311a.284.284 0 10.568 0V.263a.284.284 0 00-.284-.284z" />
    </symbol>
    <symbol id="support" viewBox="0 0 33 32">
      <path fill="currentColor"
        d="M1.993 12.558v2.831a.5.5 0 00.189.39 11.099 11.099 0 006.837 2.362c.74 0 1.482-.077 2.206-.224a12.01 12.01 0 004.89 1.032c1.707 0 3.351-.349 4.89-1.032 3.091.624 6.384-.046 9.042-2.138a.495.495 0 00.189-.39v-2.831a1.2 1.2 0 00-.575-1.027l-3.867-2.176c.846-1.073 1.476-2.602 1.586-3.913.321-2.256-1.518-4.646-4.166-4.646a4.208 4.208 0 00-2.948 1.227c-.027.027-.058.049-.084.076-.024.025-.043.054-.067.08-.016.017-.029.036-.044.053C19.314.852 17.86 0 16.147 0c-.166 0-.33.011-.492.028-.01-.001-.018-.006-.028-.006-.092 0-.287.024-.391.054-.015.004-.026.015-.041.021a4.485 4.485 0 00-3.013 2.156A4.176 4.176 0 009.003.796c-3.908 0-5.642 4.612-2.557 8.581l-3.903 2.167a1.192 1.192 0 00-.553 1.014zm19.003 4.27c-.084.041-.167.085-.251.123l-.002.001a11.007 11.007 0 01-4.627 1.006 11.023 11.023 0 01-6.674-2.228v-2.87c0-.098.047-.184.102-.221l4.542-2.524c.565.48 1.287.832 2.035.832.721 0 1.499-.357 2.052-.843l4.487 2.52c.083.053.13.139.13.237v2.87c-.571.429-1.173.795-1.794 1.098zm8.158-4.446a.201.201 0 01.092.176v2.587a9.986 9.986 0 01-6.737 1.98c.369-.23.771-.516 1.083-.76a.496.496 0 00.19-.39v-3.114c0-.435-.218-.835-.61-1.087l-2.383-1.339.58-.321c.703.573 1.307.744 1.848.744.663 0 1.36-.325 1.878-.759l4.06 2.284zM23.216 1.788c1.38 0 2.593.902 3.021 2.142A3.703 3.703 0 0124 2.788a.494.494 0 00-.788.084 3.684 3.684 0 01-2.548 1.76v-.003a4.786 4.786 0 00-.162-1.329c.563-.902 1.609-1.513 2.713-1.513zm-2.66 3.856a4.642 4.642 0 003.164-1.762 4.684 4.684 0 002.702 1.056c-.007 1.792-1.471 4.927-3.206 4.927-1.337 0-2.479-1.912-2.905-3.238a8.15 8.15 0 00.245-.983zm.101 3.729l-.886.491-.895-.502c.332-.413.636-.893.896-1.413.25.526.55 1.01.884 1.425zM19.32 6.465c-.478 1.427-1.705 3.49-3.199 3.49-1.742 0-3.226-2.864-3.509-4.696.075-.019 2.43.126 4.049-2.001.822.688 1.932 1.143 3.011 1.188.013.647-.144 1.406-.352 2.018zM16.15.992c2.78 0 3.309 2.392 3.352 2.442a4.123 4.123 0 01-2.563-1.276.497.497 0 00-.789.087 4.073 4.073 0 01-3.58 2.022c.136-1.822 1.596-3.274 3.58-3.274zm-3.689 6.946c.257.515.563 1.006.913 1.438l-.875.487-.907-.51a7.76 7.76 0 00.87-1.415zm-3.455-6.15c1.125 0 2.155.571 2.729 1.514-.029.1-.106.498-.117.548a3.675 3.675 0 01-1.821-1.062.496.496 0 00-.788.086 3.712 3.712 0 01-3.177 1.815c.158-1.627 1.518-2.9 3.174-2.9zm-3.13 3.89a4.711 4.711 0 003.643-1.796 4.629 4.629 0 002.055.961c.029.575.179 1.273.35 1.789-.274.84-.799 1.841-1.451 2.505l-.014.01c-.408.43-.988.719-1.444.719-1.594 0-2.841-2.508-3.14-4.188zm-2.891 6.88c0-.075.033-.139.067-.162l4.116-2.284c.247.206.304.229.353.265.484.322.928.482 1.534.482.645 0 1.232-.273 1.749-.694.029-.023.06-.045.088-.068l.587.33-2.446 1.361a1.269 1.269 0 00-.584 1.071v3.114c0 .152.07.296.19.39.317.249.727.539 1.083.761a10.024 10.024 0 01-6.737-1.98v-2.587z" />
      <path fill="currentColor"
        d="M31.259 20.781a2.06 2.06 0 00-2.007-.11l-6.119 2.956a2.11 2.11 0 00-2.107-2.071l-3.509.001c-1.73-1.504-3.941-2.425-5.952-2.474-1.983-.047-3.763-.06-4.593-.064v-1.002H0v11.517h6.972v-1.379C8.884 29.252 13.911 32 16.297 32c.054 0 .107-.001.158-.004 4.196-.235 14.091-7.198 14.743-7.661a2.08 2.08 0 001.034-1.796c0-.719-.364-1.376-.973-1.758zM5.98 28.543H.992V19.01H5.98v9.533zm24.707-5.058a.296.296 0 00-.044.028c-.102.073-10.281 7.271-14.244 7.494a2.354 2.354 0 01-.121.003c-2.092 0-7.194-2.753-9.307-4.001v-6.997c.827.004 2.597.017 4.569.064 1.837.044 3.876.921 5.456 2.346l.141.128 3.887-.001c.617 0 1.119.502 1.119 1.119s-.502 1.119-1.119 1.119h-7.142v.992h7.142c.684 0 1.288-.333 1.674-.839l6.984-3.373c.343-.167.725-.146 1.049.057s.508.537.508.918c0 .391-.212.753-.553.945zM16.612 12.158h-.992v.92h.992v-.92zM16.612 13.992h-.992v.92h.992v-.92zM16.612 15.826h-.992v.92h.992v-.92z" />
    </symbol>
    <symbol id="vk" viewBox="0 0 32 32">
      <path fill="currentColor"
        d="M27.541 18.46c1.061 1.036 2.182 2.011 3.134 3.152 0.421 0.507 0.819 1.030 1.123 1.619 0.432 0.836 0.041 1.757-0.709 1.807l-4.662-0.002c-1.202 0.1-2.162-0.384-2.968-1.206-0.645-0.657-1.243-1.357-1.864-2.037-0.255-0.278-0.521-0.539-0.839-0.746-0.636-0.413-1.189-0.287-1.552 0.377-0.37 0.675-0.454 1.423-0.491 2.175-0.050 1.098-0.382 1.386-1.484 1.437-2.357 0.111-4.593-0.245-6.671-1.434-1.832-1.048-3.252-2.528-4.489-4.203-2.407-3.261-4.25-6.845-5.907-10.53-0.373-0.83-0.1-1.276 0.816-1.291 1.521-0.030 3.041-0.027 4.564-0.002 0.618 0.009 1.027 0.364 1.266 0.947 0.823 2.023 1.83 3.948 3.093 5.732 0.337 0.475 0.68 0.95 1.168 1.284 0.541 0.37 0.952 0.248 1.207-0.355 0.161-0.382 0.232-0.793 0.268-1.202 0.121-1.407 0.136-2.812-0.075-4.214-0.13-0.875-0.623-1.442-1.496-1.607-0.446-0.084-0.379-0.25-0.164-0.505 0.375-0.439 0.727-0.712 1.43-0.712h5.269c0.829 0.164 1.014 0.536 1.127 1.371l0.004 5.852c-0.009 0.323 0.161 1.282 0.743 1.496 0.466 0.152 0.773-0.22 1.052-0.516 1.261-1.339 2.162-2.921 2.966-4.559 0.357-0.72 0.664-1.469 0.961-2.216 0.22-0.555 0.566-0.828 1.191-0.816l5.071 0.005c0.15 0 0.302 0.002 0.448 0.027 0.855 0.146 1.089 0.513 0.825 1.348-0.416 1.309-1.225 2.4-2.016 3.496-0.846 1.17-1.75 2.3-2.589 3.477-0.77 1.075-0.709 1.617 0.248 2.55z">
      </path>
    </symbol>
    <symbol id="instagram" viewBox="0 0 32 32">
      <path fill="currentColor"
        d="M0.528 10.029c0.103-0.724 0.181-1.452 0.311-2.171 0.739-4.072 3.622-6.842 7.743-6.984 4.963-0.171 9.941-0.18 14.903-0.001 4.486 0.161 7.735 3.483 7.875 7.971 0.149 4.765 0.149 9.542 0 14.307-0.14 4.488-3.388 7.809-7.875 7.971-4.962 0.179-9.941 0.184-14.903-0.003-4.487-0.169-7.589-3.498-7.889-7.992-0.026-0.389-0.109-0.774-0.166-1.161 0-3.979 0-7.958 0-11.937zM16.004 28.463c2.271 0 4.544 0.068 6.812-0.016 3.556-0.132 5.743-2.254 5.826-5.806 0.103-4.426 0.103-8.859 0-13.286-0.083-3.552-2.272-5.723-5.826-5.799-4.511-0.095-9.028-0.095-13.539 0-3.527 0.074-5.721 2.202-5.817 5.714-0.122 4.482-0.122 8.973 0 13.455 0.096 3.512 2.289 5.591 5.817 5.721 2.239 0.083 4.484 0.016 6.727 0.016z">
      </path>
      <path fill="currentColor"
        d="M15.999 8.115c-4.355 0-7.885 3.53-7.885 7.885s3.531 7.885 7.885 7.885c4.355 0 7.885-3.53 7.885-7.885s-3.53-7.885-7.885-7.885zM15.999 21.17c-2.856 0-5.17-2.315-5.17-5.171s2.315-5.17 5.171-5.17c2.856 0 5.171 2.315 5.171 5.171s-2.315 5.171-5.171 5.171z">
      </path>
      <path fill="currentColor"
        d="M26.221 7.755c0 1.036-0.84 1.876-1.876 1.876s-1.876-0.84-1.876-1.876c0-1.036 0.84-1.876 1.876-1.876s1.876 0.84 1.876 1.876z">
      </path>
    </symbol>
    <symbol id="logo-light" viewBox="0 0 91 32">
      <path fill="#fff" style="fill: var(--color1, #fff)"
        d="M13.608 4.836v12.942h-3.661v-5.047h-4.992v5.047h-3.661v-12.942h3.661v4.863h4.992v-4.863h3.661zM27.006 12.786c0 0.025-0.018 0.314-0.055 0.869h-7.285c0.148 0.518 0.431 0.918 0.851 1.202 0.431 0.271 0.968 0.407 1.609 0.407 0.481 0 0.894-0.068 1.239-0.203 0.357-0.136 0.715-0.357 1.072-0.666l1.849 1.923c-0.974 1.085-2.397 1.627-4.271 1.627-1.171 0-2.2-0.222-3.088-0.666s-1.578-1.060-2.071-1.849c-0.481-0.789-0.721-1.683-0.721-2.681 0-0.986 0.234-1.867 0.703-2.644 0.481-0.789 1.14-1.405 1.978-1.849s1.781-0.666 2.829-0.666c0.998 0 1.904 0.21 2.718 0.629 0.814 0.407 1.454 1.005 1.923 1.793 0.481 0.777 0.721 1.701 0.721 2.773zM21.663 10.086c-0.542 0-0.998 0.154-1.368 0.462-0.357 0.308-0.586 0.727-0.684 1.257h4.105c-0.099-0.53-0.333-0.949-0.703-1.257-0.357-0.308-0.807-0.462-1.35-0.462zM29.365 4.059h3.513v13.719h-3.513v-13.719zM35.901 4.059h3.513v13.719h-3.513v-13.719z">
      </path>
      <path fill="#ff6b09" style="fill: var(--color2, #ff6b09)"
        d="M5.547 26.596v3.982h-0.922v-1.633h-1.809v1.633h-0.922v-3.982h0.922v1.57h1.809v-1.57h0.922zM10.596 29.838v0.74h-3.083v-3.982h3.009v0.74h-2.094v0.865h1.849v0.717h-1.849v0.922h2.167zM12.354 26.596h0.922v3.231h1.997v0.751h-2.918v-3.982zM16.811 26.596h0.922v3.231h1.997v0.751h-2.918v-3.982zM21.268 26.596h0.922v3.982h-0.922v-3.982zM25.467 30.646c-0.315 0-0.62-0.042-0.916-0.125-0.292-0.087-0.527-0.199-0.705-0.336l0.313-0.694c0.171 0.125 0.374 0.226 0.609 0.302s0.47 0.114 0.705 0.114c0.262 0 0.455-0.038 0.58-0.114 0.125-0.080 0.188-0.184 0.188-0.313 0-0.095-0.038-0.173-0.114-0.233-0.072-0.064-0.167-0.116-0.284-0.154-0.114-0.038-0.269-0.080-0.466-0.125-0.303-0.072-0.552-0.144-0.745-0.216s-0.36-0.188-0.501-0.347c-0.137-0.159-0.205-0.372-0.205-0.637 0-0.231 0.063-0.44 0.188-0.626 0.125-0.19 0.313-0.339 0.563-0.449 0.254-0.11 0.563-0.165 0.927-0.165 0.254 0 0.502 0.030 0.745 0.091s0.455 0.148 0.637 0.262l-0.284 0.7c-0.368-0.209-0.736-0.313-1.104-0.313-0.258 0-0.449 0.042-0.575 0.125-0.121 0.083-0.182 0.193-0.182 0.33s0.070 0.239 0.21 0.307c0.144 0.064 0.362 0.129 0.654 0.193 0.303 0.072 0.552 0.144 0.745 0.216s0.358 0.186 0.495 0.341c0.14 0.156 0.21 0.366 0.21 0.631 0 0.228-0.064 0.436-0.193 0.626-0.125 0.186-0.315 0.334-0.569 0.444s-0.563 0.165-0.927 0.165zM32.463 26.596v3.982h-0.922v-1.633h-1.809v1.633h-0.922v-3.982h0.922v1.57h1.809v-1.57h0.922z">
      </path>
      <path fill="#fff" style="fill: var(--color1, #fff)"
        d="M40.148 29.838v0.74h-3.083v-3.982h3.009v0.74h-2.093v0.865h1.849v0.717h-1.849v0.922h2.167zM45.557 26.596v3.982h-0.757l-1.985-2.418v2.418h-0.91v-3.982h0.762l1.98 2.418v-2.418h0.91zM50.214 28.524h0.842v1.616c-0.216 0.163-0.467 0.288-0.751 0.375s-0.571 0.131-0.859 0.131c-0.413 0-0.785-0.087-1.115-0.262-0.33-0.178-0.59-0.423-0.779-0.734-0.186-0.315-0.279-0.669-0.279-1.064s0.093-0.747 0.279-1.058c0.19-0.315 0.451-0.559 0.785-0.734 0.334-0.178 0.709-0.267 1.126-0.267 0.349 0 0.666 0.059 0.95 0.176s0.523 0.288 0.717 0.512l-0.592 0.546c-0.284-0.3-0.628-0.449-1.030-0.449-0.254 0-0.48 0.053-0.677 0.159s-0.351 0.256-0.461 0.449c-0.11 0.193-0.165 0.415-0.165 0.666 0 0.247 0.055 0.466 0.165 0.66s0.262 0.345 0.455 0.455c0.197 0.106 0.421 0.159 0.671 0.159 0.266 0 0.504-0.057 0.717-0.171v-1.166zM52.936 26.596h0.922v3.231h1.997v0.751h-2.918v-3.982zM57.394 26.596h0.922v3.982h-0.922v-3.982zM61.593 30.646c-0.315 0-0.62-0.042-0.916-0.125-0.292-0.087-0.527-0.199-0.705-0.336l0.313-0.694c0.171 0.125 0.374 0.226 0.609 0.302s0.47 0.114 0.705 0.114c0.262 0 0.455-0.038 0.58-0.114 0.125-0.080 0.188-0.184 0.188-0.313 0-0.095-0.038-0.173-0.114-0.233-0.072-0.064-0.167-0.116-0.284-0.154-0.114-0.038-0.269-0.080-0.467-0.125-0.303-0.072-0.552-0.144-0.745-0.216s-0.36-0.188-0.501-0.347c-0.137-0.159-0.205-0.372-0.205-0.637 0-0.231 0.063-0.44 0.188-0.626 0.125-0.19 0.313-0.339 0.563-0.449 0.254-0.11 0.563-0.165 0.927-0.165 0.254 0 0.503 0.030 0.745 0.091s0.455 0.148 0.637 0.262l-0.284 0.7c-0.368-0.209-0.736-0.313-1.104-0.313-0.258 0-0.449 0.042-0.575 0.125-0.121 0.083-0.182 0.193-0.182 0.33s0.070 0.239 0.211 0.307c0.144 0.064 0.362 0.129 0.654 0.193 0.303 0.072 0.552 0.144 0.745 0.216s0.358 0.186 0.495 0.341c0.14 0.156 0.211 0.366 0.211 0.631 0 0.228-0.064 0.436-0.193 0.626-0.125 0.186-0.315 0.334-0.569 0.444s-0.563 0.165-0.927 0.165zM68.588 26.596v3.982h-0.922v-1.633h-1.809v1.633h-0.922v-3.982h0.922v1.57h1.809v-1.57h0.922z">
      </path>
      <path fill="#fff" style="fill: var(--color1, #fff)"
        d="M74.263 14.949v2.829h-10.391v-12.942h10.15v2.829h-6.527v2.182h5.75v2.736h-5.75v2.367h6.767zM89.348 4.836v12.942h-3.014l-5.713-6.896v6.896h-3.587v-12.942h3.014l5.713 6.896v-6.896h3.587z">
      </path>
      <path fill="#ff6b09" style="fill: var(--color2, #ff6b09)"
        d="M58.695 11.062c-0.189-0.423-0.45-0.84-0.831-1.322-0.962-1.209-1.255-3.905-1.258-3.931-0.013-0.129-0.104-0.236-0.225-0.275-0.124-0.039-0.257-0.003-0.345 0.094-1.147 1.283-0.665 3.265-0.404 4.057 0.072 0.217 0.15 0.472 0.205 0.731 0.424 2.091-0.394 3.038-0.587 3.229-0.186 0.052-0.313 0.026-0.43-0.1-0.404-0.443-0.538-1.894-0.349-3.785 0.039-0.385 0.029-0.731-0.026-1.054-0.399-2.324-1.86-3.815-2.233-4.338-1.023-1.513-1.128-4.031-1.131-4.053-0.003-0.12-0.072-0.226-0.179-0.278-0.104-0.052-0.231-0.045-0.329 0.023-1.708 1.16-1.561 3.956-1.323 5.518 0.055 0.362 0.163 0.731 0.349 1.196 0.662 1.665-0.13 3.814-0.137 3.834s-0.013 0.036-0.016 0.055c-0.101 0.53-0.271 0.847-0.46 0.847-0.020 0-0.039-0.003-0.062-0.010-0.231-0.049-0.352-0.294-0.355-0.507-0.013-2.757-2.78-3.685-2.809-3.695-0.124-0.039-0.261-0.003-0.345 0.097-0.088 0.1-0.104 0.239-0.046 0.356 0.033 0.068 0.137 0.365 0.065 1.416-0.062 0.944-0.235 1.878-0.512 2.773-0.658 2.146-0.554 4.179-0.548 4.276 0.506 5.505 8.423 6.469 13.122 3.368 0.515-0.339 0.935-0.727 1.245-1.154 1.734-2.392 0.714-5.64-0.046-7.366zM46.652 16.321c0.010 0.178-0.127 0.33-0.306 0.339h-0.020c-0.173 0-0.316-0.133-0.326-0.304-0.029-0.472-0.023-0.966 0.013-1.503 0.013-0.178 0.169-0.31 0.349-0.301 0.179 0.013 0.316 0.168 0.303 0.346-0.036 0.511-0.042 0.976-0.013 1.422zM46.812 13.457c-0.020 0.165-0.16 0.284-0.323 0.284-0.013 0-0.026 0-0.042-0.003-0.176-0.023-0.303-0.181-0.284-0.359l0.156-1.248c0.023-0.175 0.183-0.301 0.365-0.281 0.179 0.023 0.306 0.184 0.284 0.362l-0.156 1.245z">
      </path>
      <path fill="#ff6b09" style="fill: var(--color2, #ff6b09)"
        d="M56.49 4.422c-0.178-0.027-0.3-0.192-0.272-0.368 0.020-0.131 0.138-0.804 0.458-1.142 0.123-0.13 0.329-0.137 0.461-0.015s0.138 0.327 0.015 0.457c-0.135 0.143-0.25 0.553-0.289 0.798-0.028 0.174-0.191 0.297-0.372 0.27z">
      </path>
      <path fill="#ff6b09" style="fill: var(--color2, #ff6b09)"
        d="M44.608 6.032c-0.062-0.24-0.217-0.637-0.366-0.766-0.135-0.118-0.149-0.322-0.030-0.456s0.324-0.148 0.46-0.030c0.351 0.305 0.535 0.963 0.568 1.092 0.045 0.173-0.060 0.349-0.235 0.393-0.178 0.044-0.353-0.063-0.397-0.232z">
      </path>
    </symbol>
    <symbol id="logo" viewBox="0 0 91 32">
      <path fill="#111518" style="fill: var(--color1, #111518)"
        d="M13.608 4.836v12.942h-3.661v-5.047h-4.992v5.047h-3.661v-12.942h3.661v4.863h4.992v-4.863h3.661zM27.006 12.786c0 0.025-0.018 0.314-0.055 0.869h-7.285c0.148 0.518 0.431 0.918 0.851 1.202 0.431 0.271 0.968 0.407 1.609 0.407 0.481 0 0.894-0.068 1.239-0.203 0.357-0.136 0.715-0.357 1.072-0.666l1.849 1.923c-0.974 1.085-2.397 1.627-4.271 1.627-1.171 0-2.2-0.222-3.088-0.666s-1.578-1.060-2.071-1.849c-0.481-0.789-0.721-1.683-0.721-2.681 0-0.986 0.234-1.867 0.703-2.644 0.481-0.789 1.14-1.405 1.978-1.849s1.781-0.666 2.829-0.666c0.998 0 1.904 0.21 2.718 0.629 0.814 0.407 1.454 1.005 1.923 1.793 0.481 0.777 0.721 1.701 0.721 2.773zM21.663 10.086c-0.542 0-0.998 0.154-1.368 0.462-0.357 0.308-0.586 0.727-0.684 1.257h4.105c-0.099-0.53-0.333-0.949-0.703-1.257-0.357-0.308-0.807-0.462-1.35-0.462zM29.365 4.059h3.513v13.719h-3.513v-13.719zM35.901 4.059h3.513v13.719h-3.513v-13.719z">
      </path>
      <path fill="#ff6b09" style="fill: var(--color2, #ff6b09)"
        d="M5.547 26.596v3.982h-0.922v-1.633h-1.809v1.633h-0.922v-3.982h0.922v1.57h1.809v-1.57h0.922zM10.596 29.838v0.74h-3.083v-3.982h3.009v0.74h-2.094v0.865h1.849v0.717h-1.849v0.922h2.167zM12.354 26.596h0.922v3.231h1.997v0.751h-2.918v-3.982zM16.811 26.596h0.922v3.231h1.997v0.751h-2.918v-3.982zM21.268 26.596h0.922v3.982h-0.922v-3.982zM25.467 30.646c-0.315 0-0.62-0.042-0.916-0.125-0.292-0.087-0.527-0.199-0.705-0.336l0.313-0.694c0.171 0.125 0.374 0.226 0.609 0.302s0.47 0.114 0.705 0.114c0.262 0 0.455-0.038 0.58-0.114 0.125-0.080 0.188-0.184 0.188-0.313 0-0.095-0.038-0.173-0.114-0.233-0.072-0.064-0.167-0.116-0.284-0.154-0.114-0.038-0.269-0.080-0.466-0.125-0.303-0.072-0.552-0.144-0.745-0.216s-0.36-0.188-0.501-0.347c-0.137-0.159-0.205-0.372-0.205-0.637 0-0.231 0.063-0.44 0.188-0.626 0.125-0.19 0.313-0.339 0.563-0.449 0.254-0.11 0.563-0.165 0.927-0.165 0.254 0 0.502 0.030 0.745 0.091s0.455 0.148 0.637 0.262l-0.284 0.7c-0.368-0.209-0.736-0.313-1.104-0.313-0.258 0-0.449 0.042-0.575 0.125-0.121 0.083-0.182 0.193-0.182 0.33s0.070 0.239 0.21 0.307c0.144 0.064 0.362 0.129 0.654 0.193 0.303 0.072 0.552 0.144 0.745 0.216s0.358 0.186 0.495 0.341c0.14 0.156 0.21 0.366 0.21 0.631 0 0.228-0.064 0.436-0.193 0.626-0.125 0.186-0.315 0.334-0.569 0.444s-0.563 0.165-0.927 0.165zM32.463 26.596v3.982h-0.922v-1.633h-1.809v1.633h-0.922v-3.982h0.922v1.57h1.809v-1.57h0.922z">
      </path>
      <path fill="#111518" style="fill: var(--color1, #111518)"
        d="M40.148 29.838v0.74h-3.083v-3.982h3.009v0.74h-2.093v0.865h1.849v0.717h-1.849v0.922h2.167zM45.557 26.596v3.982h-0.757l-1.985-2.418v2.418h-0.91v-3.982h0.762l1.98 2.418v-2.418h0.91zM50.214 28.524h0.842v1.616c-0.216 0.163-0.467 0.288-0.751 0.375s-0.571 0.131-0.859 0.131c-0.413 0-0.785-0.087-1.115-0.262-0.33-0.178-0.59-0.423-0.779-0.734-0.186-0.315-0.279-0.669-0.279-1.064s0.093-0.747 0.279-1.058c0.19-0.315 0.451-0.559 0.785-0.734 0.334-0.178 0.709-0.267 1.126-0.267 0.349 0 0.666 0.059 0.95 0.176s0.523 0.288 0.717 0.512l-0.592 0.546c-0.284-0.3-0.628-0.449-1.030-0.449-0.254 0-0.48 0.053-0.677 0.159s-0.351 0.256-0.461 0.449c-0.11 0.193-0.165 0.415-0.165 0.666 0 0.247 0.055 0.466 0.165 0.66s0.262 0.345 0.455 0.455c0.197 0.106 0.421 0.159 0.671 0.159 0.266 0 0.504-0.057 0.717-0.171v-1.166zM52.936 26.596h0.922v3.231h1.997v0.751h-2.918v-3.982zM57.394 26.596h0.922v3.982h-0.922v-3.982zM61.593 30.646c-0.315 0-0.62-0.042-0.916-0.125-0.292-0.087-0.527-0.199-0.705-0.336l0.313-0.694c0.171 0.125 0.374 0.226 0.609 0.302s0.47 0.114 0.705 0.114c0.262 0 0.455-0.038 0.58-0.114 0.125-0.080 0.188-0.184 0.188-0.313 0-0.095-0.038-0.173-0.114-0.233-0.072-0.064-0.167-0.116-0.284-0.154-0.114-0.038-0.269-0.080-0.467-0.125-0.303-0.072-0.552-0.144-0.745-0.216s-0.36-0.188-0.501-0.347c-0.137-0.159-0.205-0.372-0.205-0.637 0-0.231 0.063-0.44 0.188-0.626 0.125-0.19 0.313-0.339 0.563-0.449 0.254-0.11 0.563-0.165 0.927-0.165 0.254 0 0.503 0.030 0.745 0.091s0.455 0.148 0.637 0.262l-0.284 0.7c-0.368-0.209-0.736-0.313-1.104-0.313-0.258 0-0.449 0.042-0.575 0.125-0.121 0.083-0.182 0.193-0.182 0.33s0.070 0.239 0.211 0.307c0.144 0.064 0.362 0.129 0.654 0.193 0.303 0.072 0.552 0.144 0.745 0.216s0.358 0.186 0.495 0.341c0.14 0.156 0.211 0.366 0.211 0.631 0 0.228-0.064 0.436-0.193 0.626-0.125 0.186-0.315 0.334-0.569 0.444s-0.563 0.165-0.927 0.165zM68.588 26.596v3.982h-0.922v-1.633h-1.809v1.633h-0.922v-3.982h0.922v1.57h1.809v-1.57h0.922z">
      </path>
      <path fill="#111518" style="fill: var(--color1, #111518)"
        d="M74.263 14.949v2.829h-10.391v-12.942h10.15v2.829h-6.527v2.182h5.75v2.736h-5.75v2.367h6.767zM89.348 4.836v12.942h-3.014l-5.713-6.896v6.896h-3.587v-12.942h3.014l5.713 6.896v-6.896h3.587z">
      </path>
      <path fill="#ff6b09" style="fill: var(--color2, #ff6b09)"
        d="M58.695 11.062c-0.189-0.423-0.45-0.84-0.831-1.322-0.962-1.209-1.255-3.905-1.258-3.931-0.013-0.129-0.104-0.236-0.225-0.275-0.124-0.039-0.258-0.003-0.346 0.094-1.147 1.283-0.665 3.265-0.404 4.057 0.072 0.217 0.15 0.472 0.205 0.731 0.424 2.091-0.394 3.038-0.587 3.229-0.186 0.052-0.313 0.026-0.43-0.1-0.404-0.443-0.538-1.894-0.349-3.785 0.039-0.385 0.029-0.731-0.026-1.054-0.399-2.324-1.86-3.815-2.233-4.338-1.023-1.513-1.128-4.031-1.131-4.053-0.003-0.12-0.072-0.226-0.179-0.278-0.104-0.052-0.231-0.045-0.329 0.023-1.708 1.16-1.561 3.956-1.323 5.518 0.055 0.362 0.163 0.731 0.349 1.196 0.662 1.665-0.13 3.814-0.137 3.834s-0.013 0.036-0.016 0.055c-0.101 0.53-0.27 0.847-0.46 0.847-0.020 0-0.039-0.003-0.062-0.010-0.231-0.048-0.352-0.294-0.355-0.507-0.013-2.757-2.78-3.685-2.81-3.694-0.124-0.039-0.261-0.003-0.345 0.097-0.088 0.1-0.104 0.239-0.046 0.356 0.033 0.068 0.137 0.365 0.065 1.416-0.062 0.944-0.235 1.878-0.512 2.773-0.658 2.146-0.554 4.179-0.548 4.276 0.506 5.505 8.423 6.469 13.122 3.368 0.515-0.339 0.935-0.727 1.245-1.154 1.734-2.392 0.714-5.64-0.046-7.366zM46.652 16.321c0.010 0.178-0.127 0.33-0.306 0.339h-0.020c-0.173 0-0.316-0.132-0.326-0.304-0.029-0.472-0.023-0.966 0.013-1.503 0.013-0.178 0.169-0.31 0.349-0.301 0.179 0.013 0.316 0.168 0.303 0.346-0.036 0.511-0.042 0.976-0.013 1.422zM46.811 13.457c-0.020 0.165-0.16 0.284-0.323 0.284-0.013 0-0.026 0-0.042-0.003-0.176-0.023-0.303-0.181-0.284-0.359l0.156-1.248c0.023-0.175 0.182-0.301 0.365-0.281 0.179 0.023 0.306 0.184 0.284 0.362l-0.156 1.244z">
      </path>
      <path fill="#ff6b09" style="fill: var(--color2, #ff6b09)"
        d="M56.49 4.422c-0.178-0.027-0.3-0.192-0.272-0.368 0.020-0.131 0.138-0.804 0.458-1.142 0.123-0.13 0.329-0.137 0.461-0.015s0.138 0.327 0.015 0.457c-0.135 0.143-0.25 0.553-0.289 0.798-0.027 0.174-0.191 0.297-0.372 0.27z">
      </path>
      <path fill="#ff6b09" style="fill: var(--color2, #ff6b09)"
        d="M44.608 6.032c-0.062-0.24-0.217-0.637-0.366-0.766-0.135-0.118-0.149-0.322-0.030-0.456s0.324-0.148 0.46-0.030c0.351 0.305 0.535 0.963 0.568 1.092 0.045 0.173-0.060 0.349-0.235 0.393-0.178 0.044-0.352-0.063-0.397-0.232z">
      </path>
    </symbol>

    <symbol id="female-student-border-mobil" viewBox="0 0 31 32">
      <path fill="currentColor"
        d="M7.046 26.006c2.185 0 14.824 0 17.006 0 0.084-1.939-0.055-5.157-1.247-6.689l-0.043-0.055-2.606-1.308c0.057-0.191 0.084-0.366 0.096-0.494 0.013-0.154-0.008-0.299-0.063-0.43-0.43-1.029-1.339-1.57-1.84-1.8 0.152-0.307 0.251-0.637 0.298-0.974 0.283-0.080 0.511-0.304 0.586-0.604l0.304-1.236c0.054-0.218 0.020-0.444-0.096-0.636-0.050-0.083-0.114-0.153-0.187-0.212 0.858-1.948-0.579-3.784-0.657-3.881-1.555-1.682-3.52-1.367-3.624-1.349-2.836 0.594-3.93 2.767-3.312 5.316-0.183 0.203-0.26 0.485-0.192 0.762l0.306 1.237c0.074 0.297 0.3 0.521 0.581 0.602 0.087 0.617 0.348 1.175 0.732 1.625v0.979c-4.069 2.084-1.491 0.754-4.752 2.404-0.006 0.031-1.53 1.65-1.304 6.45l0.014 0.293zM23.461 25.39h-2.799v-1.176l1.851-4.238c0.927 1.539 0.962 4.478 0.948 5.413zM19.641 17.407c-0.108 1.241-0.788 0.866-1.208 1.822-0.33-0.363-0.43-0.799-0.341-1.265 0.16-0.856-0.362-1.11-0.233-2.010l0.020-0.021v-0.003c0.011-0.012 0.114-0.135 0.144-0.174 1.107 0.483 1.64 1.381 1.619 1.651zM13.701 16.432c0.514 0.357 1.135 0.567 1.802 0.567 0.629 0 1.226-0.183 1.737-0.52 0.071 0.707 0.347 0.849 0.249 1.369-0.018 0.097-0.028 0.192-0.034 0.285l-1.906 2.148-2.437-2.747 0.588-0.307v-0.796zM12.934 13.803v-1.191c0-0.439 0-2.179 0-2.093 0.297-0.549 0.701-0.947 1.204-1.185 1.346 0.762 2.896 1.898 3.935 3.042-0.001 1.457 0.004 1.461-0.006 1.58l-0.001 0.008c-0.081 1.323-1.169 2.419-2.564 2.419-1.356 0-2.482-1.065-2.563-2.433-0.004-0.049-0.005-0.098-0.005-0.148zM12.555 17.833l2.994 3.376 2.010-2.266c0.046 0.132 0.11 0.257 0.184 0.378l-2.194 2.744-3.272-4.093 0.278-0.14zM18.686 13.307v-0.951c0.027-0.031 0.256-0.293 0.229-0.262 0.013 0.482 0.065-0.087-0.229 1.213zM15.087 6.942c0.122 0.008 1.756-0.249 3.047 1.146 0.051 0.064 1.102 1.418 0.68 2.9-0.145-0.659-0.397-1.504-0.795-1.907l-0.435 0.434c0.393 0.398 0.651 1.611 0.75 2.24-1.803-1.887-4.13-3.082-4.162-3.102-0.117 0.073-1.101 0.26-1.816 1.649l-0.034 0.066v1.021c-0.031 0-0.121 0.001-0.090 0.001-0.454-2.193 0.416-3.936 2.855-4.447zM12.167 12.023l0.155 0.627v0.659l-0.257-1.041c-0.038-0.155 0.077-0.214 0.102-0.245zM11.716 18.254l3.833 4.794 2.594-3.244c0.282 0.253 0.418 0.288 1.016 0.596l-0.202-0.684c-0.051-0.174 0.151-0.452 0.274-0.58 0.273-0.148 0.501-0.36 0.671-0.621l2.116 1.063-1.969 4.508v1.305h-9v-1.305l-1.97-4.507 2.637-1.324zM8.584 19.978l1.851 4.237v1.176h-2.799c-0.014-0.935 0.021-3.872 0.947-5.412z">
      </path>
      <path fill="currentColor" stroke="currentColor" stroke-linejoin="miter" stroke-linecap="butt"
        stroke-miterlimit="4" stroke-width="1.0159" d="M30.387 4.945v-4.183h-29.879v30.476h29.879v-4.183"></path>
    </symbol>

    <symbol id="insurance-border-mobil" viewBox="0 0 31 32">
      <path fill="currentColor"
        d="M6.947 14.566c0 0.227-0.344 0.227-0.344 0 0-4.818 3.907-8.725 8.725-8.725 4.82 0 8.725 3.907 8.725 8.725 0 0.227-0.342 0.227-0.342 0 0-3.256-5.351-3.258-5.351 0 0 0.227-0.352 0.227-0.352 0 0-3.248-5.36-3.248-5.36 0 0 0.227-0.352 0.227-0.352 0 0-3.242-5.349-3.265-5.349 0zM12.327 13.302c0.093-1.874 0.387-3.555 0.816-4.838 0.342-1.020 0.774-1.794 1.265-2.229-3.679 0.402-6.657 3.191-7.322 6.808 1.267-1.827 4.192-1.681 5.242 0.26zM17.981 13.217c-0.095-1.802-0.381-3.415-0.793-4.645-1.063-3.182-2.657-3.182-3.72 0-0.412 1.23-0.696 2.842-0.793 4.645 1.143-1.942 4.163-1.942 5.306 0zM23.571 13.042c-0.663-3.617-3.642-6.406-7.322-6.808 0.492 0.435 0.923 1.209 1.265 2.229 0.428 1.283 0.723 2.964 0.816 4.838 1.057-1.951 3.99-2.066 5.242-0.26z">
      </path>
      <path fill="currentColor"
        d="M14.183 18.559v-1.772c-0.319 0.212-0.571 0.54-0.571 0.939 0 0.389 0.255 0.647 0.571 0.832zM14.527 19.109c-0.612-0.28-1.256-0.608-1.256-1.382 0-0.799 0.608-1.199 1.256-1.498v2.88z">
      </path>
      <path fill="currentColor"
        d="M16.474 21.232v1.792c0.323-0.214 0.577-0.544 0.577-0.943 0-0.393-0.26-0.659-0.577-0.849zM16.132 20.68c0.614 0.284 1.263 0.622 1.263 1.401 0 0.801-0.612 1.201-1.263 1.497v-2.898z">
      </path>
      <path fill="currentColor"
        d="M16.474 14.77c1.409 0.325 2.857 1.38 2.857 2.956 0 1.349-2.28 1.3-2.28 0 0-0.402-0.253-0.731-0.577-0.943v2.521c1.304 0.426 2.861 1.191 2.861 2.777 0 1.578-1.448 2.63-2.861 2.954-0.006 1.502-2.286 1.5-2.29-0.002-0.803-0.185-1.502-0.56-2.006-1.057-0.529-0.523-0.842-1.18-0.842-1.895 0-1.329 2.278-1.329 2.278 0 0 0.398 0.251 0.725 0.571 0.937v-2.519c-1.294-0.418-2.859-1.205-2.859-2.777 0-1.578 1.448-2.63 2.859-2.954 0.006-1.502 2.286-1.5 2.29 0.002zM14.527 14.774v0.274c-1.341 0.266-2.861 1.125-2.861 2.674 0 1.489 1.668 2.157 2.861 2.525v3.329c-0.645-0.295-1.256-0.692-1.256-1.495 0-0.878-1.594-0.878-1.594 0 0 0.62 0.276 1.193 0.742 1.65 0.591 0.585 1.308 0.863 2.109 1.022v0.276c0 1.057 1.605 1.057 1.605 0v-0.274c1.345-0.268 2.859-1.127 2.859-2.674 0-1.504-1.664-2.15-2.859-2.527v-3.327c0.647 0.295 1.263 0.692 1.263 1.5 0 0.855 1.592 0.89 1.592 0 0-1.547-1.512-2.408-2.855-2.676v-0.276c0-1.057-1.605-1.057-1.605 0z">
      </path>
      <path fill="none" stroke="currentColor" stroke-linejoin="miter" stroke-linecap="butt" stroke-miterlimit="4"
        stroke-width="1.0159" d="M30.387 4.945v-4.183h-29.879v30.476h29.879v-4.183"></path>
    </symbol>

    <symbol id="mobile-learning-border-mobil" viewBox="0 0 31 32">
      <path fill="currentColor"
        d="M24.717 5.25h-10.247c-0.667 0-1.21 0.543-1.21 1.21v4.242l-7.613 3.195c-0.086 0.036-0.145 0.117-0.151 0.211s0.040 0.182 0.12 0.23l0.971 0.581v6.192c-0.497 0.113-0.869 0.558-0.869 1.089v0.597c0 0.137 0.111 0.248 0.248 0.248h1.739c0.137 0 0.248-0.111 0.248-0.248v-0.597c0-0.531-0.373-0.975-0.87-1.089v-5.896l0.768 0.459c-0.024 0.177-0.003-0.309-0.011 2.883 0 1.049 2.687 1.611 5.421 1.643v4.832c0 0.25 0.076 0.482 0.207 0.674 0.217 0.322 0.585 0.534 1.002 0.534h10.247c0.666 0 1.209-0.542 1.209-1.209 0 0.033-0.001-1.024 0-18.573 0-0.658-0.544-1.21-1.208-1.21zM7.456 22.201v0.349h-1.243v-0.349c0-0.344 0.278-0.623 0.62-0.623 0.343 0 0.623 0.28 0.623 0.623zM24.717 25.745h-10.247c-0.246 0-0.463-0.125-0.592-0.313-0.077-0.114-0.122-0.251-0.122-0.398v-1.675h11.672v1.676c0 0.388-0.324 0.711-0.711 0.711zM25.428 22.862h-11.672v-2.659c1.335-0.015 5.424-0.309 5.424-1.645-0.001-2.005 0.004-2.818-0.006-2.887l2.226-1.334c0.080-0.048 0.126-0.137 0.12-0.23s-0.065-0.175-0.151-0.211l-7.613-3.195v-2.071h11.672v14.232zM13.508 16.912c-1.375 0-4.023 0.178-5.173 0.929 0.007-2.297-0.080-2.148 0.203-2.343 0.715-0.526 2.758-0.894 4.97-0.894 0.965 0 5.176 0.265 5.176 1.157v2.080c-1.161-0.758-3.795-0.929-5.176-0.929zM13.756 6.46c0-0.393 0.32-0.713 0.713-0.713h10.247c0.393 0 0.712 0.324 0.712 0.713v1.675h-11.672v-1.675zM13.508 11.135l7.217 3.029-1.788 1.070c-0.951-0.943-4.096-1.126-5.429-1.126-1.335 0-4.48 0.183-5.429 1.126l-1.789-1.070 7.218-3.029zM8.335 18.558c0-0.401 1.777-1.15 5.173-1.15 3.399 0 5.176 0.749 5.176 1.15s-1.778 1.15-5.176 1.15c-3.396 0-5.173-0.749-5.173-1.15z">
      </path>
      <path fill="currentColor"
        d="M19.593 23.732c-0.452 0-0.82 0.368-0.82 0.82s0.368 0.82 0.82 0.82c0.452 0 0.82-0.368 0.82-0.82s-0.368-0.82-0.82-0.82zM19.593 24.877c-0.179 0-0.324-0.146-0.324-0.324s0.145-0.324 0.324-0.324c0.179 0 0.324 0.145 0.324 0.324s-0.145 0.324-0.324 0.324z">
      </path>
      <path fill="currentColor" d="M20.538 6.693h-1.891v0.496h1.891v-0.496z"></path>
      <path fill="none" stroke="currentColor" stroke-linejoin="miter" stroke-linecap="butt" stroke-miterlimit="4"
        stroke-width="1.0159" d="M30.387 4.945v-4.183h-29.879v30.476h29.879v-4.183"></path>
    </symbol>
  </defs>
</svg>